<svg id="Capa_1" data-name="Capa 1" xmlns="http://www.w3.org/2000/svg" viewBox="0 0 402.15 266.8"><defs><style>.cls-1,.cls-2{fill:#040203;}.cls-2{font-size:33.8px;}.cls-15,.cls-2{font-family:BrightSunshineDemo, Bright Sunshine Demo;}.cls-3{letter-spacing:-0.01em;}.cls-4{letter-spacing:-0.06em;}.cls-5{letter-spacing:0em;}.cls-6{letter-spacing:-0.02em;}.cls-7{letter-spacing:0.03em;}.cls-8{letter-spacing:0.02em;}.cls-9{letter-spacing:-0.01em;}.cls-10{letter-spacing:-0.03em;}.cls-11{letter-spacing:-0.03em;}.cls-12{letter-spacing:0.01em;}.cls-13{letter-spacing:-0.03em;}.cls-14{letter-spacing:-0.02em;}.cls-15{font-size:61.12px;fill:#00679f;}.cls-16{letter-spacing:-0.06em;}.cls-17,.cls-18,.cls-19,.cls-20,.cls-21,.cls-22,.cls-23,.cls-24,.cls-25,.cls-26{fill:#1f140f;}.cls-18{letter-spacing:-0.15em;}.cls-19{letter-spacing:0.01em;}.cls-20{letter-spacing:0.07em;}.cls-21{letter-spacing:0.04em;}.cls-22{letter-spacing:-0.04em;}.cls-23{letter-spacing:0.07em;}.cls-24{letter-spacing:-0.01em;}.cls-25{font-size:39.74px;font-family:ShockwaveRegular, Shockwave;letter-spacing:0em;}.cls-26{letter-spacing:0em;}</style></defs><title>LOGO_WSRS</title><rect class="cls-1" x="183.64" y="112.79" width="8.52" height="8.52"/><rect class="cls-1" x="194.83" y="112.79" width="8.52" height="8.52"/><rect class="cls-1" x="184.08" y="124.64" width="8.52" height="8.52"/><rect class="cls-1" x="195.27" y="124.64" width="8.52" height="8.52"/><rect class="cls-1" x="132.52" y="132.27" width="4.3" height="4.3"/><rect class="cls-1" x="138.17" y="132.27" width="4.3" height="4.3"/><rect class="cls-1" x="132.74" y="138.25" width="4.3" height="4.3"/><rect class="cls-1" x="138.4" y="138.25" width="4.3" height="4.3"/><polygon class="cls-1" points="245.56 99.78 193.63 85.27 192.86 84.48 162.98 115.75 138.47 114.78 113.21 140.5 116.34 143.46 138.72 120.8 153.23 132.2 192.89 90.69 244.98 144.13 290.06 144.13 290.06 140.48 290.06 140.48 245.56 99.78"/><polygon class="cls-1" points="166.77 3.84 194.51 14.15 166.69 0 126.54 19.46 126.44 28.3 166.87 8.71 166.77 3.84"/><polygon class="cls-1" points="166.79 20.54 194.51 29.77 166.8 16.47 126.55 34.23 126.44 43.92 166.92 26.85 166.79 20.54"/><polygon class="cls-1" points="167.12 33.7 126.98 50.39 126.87 60.08 167.39 44.72 167.22 38.42 194.94 45.93 167.12 33.7"/><polygon class="cls-1" points="167.12 51.03 126.98 65.14 126.93 69.45 126.86 69.45 126.86 123.04 136.09 112.12 158.34 112.12 165.73 105.17 131.7 111.16 131.67 105.92 168.3 99.39 167.97 90.51 180.28 91.58 182.74 89.8 167.12 85.71 131.61 94.41 131.58 88.72 167.39 80.47 167.22 75.03 193.79 78.2 167.12 69.45 131.52 78.9 131.49 73.48 167.39 62.91 167.22 55.76 194.08 61.41 167.12 51.03"/><polygon class="cls-1" points="195.98 81.7 201.63 82.56 201.63 33.7 195.98 34.56 195.98 81.7"/><polygon class="cls-1" points="204.03 83.62 208.31 84.48 208.31 31.92 204.03 32.78 204.03 83.62"/><polygon class="cls-1" points="211.74 86.17 215.85 87.04 215.85 29.16 211.74 30.03 211.74 86.17"/><polygon class="cls-1" points="218.93 88.07 223.21 88.93 223.21 27.41 218.93 29.14 218.93 88.07"/><polygon class="cls-1" points="226.81 90.94 230.92 91.81 230.92 24.67 226.81 26.4 226.81 90.94"/><polygon class="cls-1" points="233.49 25.53 233.49 92.47 245.13 95.92 245.13 38.45 233.49 25.53"/><path class="cls-1" d="M414.75,89.69a2.12,2.12,0,0,0-.35-1,1,1,0,0,0,0-1.36.94.94,0,0,0-.68-.44,1.93,1.93,0,0,0-.24-.6l-.07-.15c-2.35-5.28-6.65-7.81-12.41-7.33a1.25,1.25,0,0,0-.32.08.76.76,0,0,0-.18-.6,1,1,0,0,0-.82-.32,1,1,0,0,0-.92,1.22,1.43,1.43,0,0,0,1.38,1.29l1.36.19,2.47.36a9.3,9.3,0,0,1,7.31,5.67s0,0,0,.09a1.65,1.65,0,0,0,.12.32l.09.15a2.88,2.88,0,0,0,.22.39,1,1,0,0,0-.22.24,1.7,1.7,0,0,0-.17,1.38.8.8,0,0,1-.16.15l-.14.13a21.7,21.7,0,0,1-7.76,5.11,2.32,2.32,0,0,0-.59.29,1.14,1.14,0,0,0-.33,1.54.85.85,0,0,0,.53.45.9.9,0,0,0,.76-.17l.07,0,1-.41-.93.54a2.15,2.15,0,0,0-1.13,2.78l0,0-1-.32,1,1.41a1.62,1.62,0,0,1,.09,1.85,2.13,2.13,0,0,0,0,1.61l0,.08c.2.7.44,1.4.66,2.08a2.45,2.45,0,0,0-2.82.86,10.13,10.13,0,0,0-2.3,6.53c-1.31-3.66-1.12-6.77.58-9.73l.84-1.46-.55.22a1.75,1.75,0,0,0,.44-1,.86.86,0,0,0-.24-.63l-.41-.66-.52.49-.05,0-.08-.11a1.41,1.41,0,0,0-.61-.57,2.1,2.1,0,0,0-2.15,0l-.86.59a5.19,5.19,0,0,0,.17-.6v0l.82-.52c.14-.09.29-.16.48-.26a3.13,3.13,0,0,0,1.85-1.91l.51-1.56-1.21.78a2.19,2.19,0,0,0-.67-1.66,1.4,1.4,0,0,0,.58-1,1.23,1.23,0,0,0-.19-.73,2.34,2.34,0,0,0,.4-.37,1.58,1.58,0,0,1,.22-.19c.25-.21.89-.74.54-1.42a.85.85,0,0,0,.32-.68.87.87,0,0,0-.25-.61,1,1,0,0,0-.77-.22,2.58,2.58,0,0,0-2.29.91l-.56.72a.89.89,0,0,0-.64.41.64.64,0,0,0,0,.63c.1.23.1.23-.27.5a3.08,3.08,0,0,0-.44.37,1.44,1.44,0,0,0-.5,1.31,1.14,1.14,0,0,0,.21.48,1,1,0,0,0-.29.3,1.76,1.76,0,0,0-.08,1.59c.09.27.09.27-.18.51a8.64,8.64,0,0,0-2,2.71,1.35,1.35,0,0,0,.54,2l.68.38.18-.76a5.54,5.54,0,0,1,1.37-2.45l-.23.59c-.11.29-.22.59-.34.87a1,1,0,0,0,0,.59s0,.08,0,.13l0,.61-1.08.77,1.42.22a3.27,3.27,0,0,0,.54,0,4,4,0,0,0,2.34-.88c.79-.56.79-.56,1.42.17a1,1,0,0,1,.08.11,1.35,1.35,0,0,0,.59.5c-1.73.82-2,2.39-2.28,3.67-.73,3.9-.06,6.85,2.1,9.27a1.15,1.15,0,0,0,.74.32l.61.09.45.55.25-1.77c.44-3.2.86-6.22,3.83-8l.07,0a5.47,5.47,0,0,1-.87,4.36c-.45.69-.89,1.4-1.3,2.09l-.29.46a1.48,1.48,0,0,0,.48,2.22,3.92,3.92,0,0,1,1.3,1.59l-.3-.18-1.88-1,1.11,1.82a19.11,19.11,0,0,1,2.41,5.67,67.51,67.51,0,0,0-8.42.32c.14-.39.27-.78.39-1.18A10.85,10.85,0,0,1,398.8,119l.86-.85-1.21-.14a1.62,1.62,0,0,0-1.77.7,8.84,8.84,0,0,0-2,6.3,45.89,45.89,0,0,0-16.3,4.88,87.88,87.88,0,0,0-18.22,12.91l-.15.14,18.29,16.76.08-.31c5.4-21.29,30.12-28.11,30.37-28.17l.14,0v-6.35l-.17,0s-1-.13-2.74-.21a7.57,7.57,0,0,0-1.17-4.48l.22.09.14-.7a4.37,4.37,0,0,0-1.77-4.07,1,1,0,0,1-.21-.2.65.65,0,0,1,.11-.15,5.27,5.27,0,0,0,.36-.52,3.53,3.53,0,0,1,.21-.32c2.45-3,2.82-6.38,1.15-10.32a2.16,2.16,0,0,1-.17-1.76,1.51,1.51,0,0,0,0-1.2,2.1,2.1,0,0,0-1.25-.94l.1-.12a18.14,18.14,0,0,1,4.2-3.19,23.74,23.74,0,0,0,3.63-2.58,7.41,7.41,0,0,0,1.42-1.72,31.11,31.11,0,0,1-.07,3.35V96A18.4,18.4,0,0,1,411,102.9a7.49,7.49,0,0,0-.78,2.45,1.11,1.11,0,0,0,.92,1.33.93.93,0,0,0,.79-.22,1.21,1.21,0,0,0,.25-1,2.6,2.6,0,0,1,.35-1.28c.05-.11.11-.22.15-.33A25.79,25.79,0,0,0,414.75,89.69Zm-20.05,5,0,0s.09-.1.15-.15a.2.2,0,0,0,.09.09A.54.54,0,0,1,394.7,94.64Z" transform="translate(-110.01 -42.28)"/><path class="cls-1" d="M401.18,95h0a3,3,0,0,1,.22-.7.78.78,0,0,0,0-.68.91.91,0,0,0-.59-.52.8.8,0,0,0-.67.06.9.9,0,0,0-.41.62c0,.21-.08.42-.11.65a4.52,4.52,0,0,1-.49,1.66l-1,1.74,1.81-.93A2.48,2.48,0,0,0,401.18,95Z" transform="translate(-110.01 -42.28)"/><text class="cls-2" transform="translate(100.92 177.6)">G<tspan class="cls-3" x="12.07" y="0">r</tspan><tspan x="23.32" y="0">upo </tspan><tspan class="cls-4" x="65.2" y="0">I</tspan><tspan class="cls-5" x="74.8" y="0">n</tspan><tspan class="cls-6" x="88.32" y="0">m</tspan><tspan class="cls-7" x="105.49" y="0">o</tspan><tspan class="cls-8" x="116.47" y="0">b</tspan><tspan class="cls-9" x="130.03" y="0">i</tspan><tspan class="cls-10" x="137.94" y="0">l</tspan><tspan class="cls-11" x="145.54" y="0">i</tspan><tspan class="cls-12" x="152.91" y="0">a</tspan><tspan class="cls-13" x="166.97" y="0">r</tspan><tspan class="cls-14" x="177.35" y="0">i</tspan><tspan x="184.99" y="0">o </tspan></text><text class="cls-15" transform="translate(0 238.19)"><tspan class="cls-16">W</tspan><tspan x="37.46" y="0">s</tspan><tspan class="cls-17" x="53.84" y="0"> </tspan><tspan class="cls-18" x="68.57" y="0">R</tspan><tspan class="cls-19" x="104.63" y="0">e</tspan><tspan class="cls-20" x="121.99" y="0">a</tspan><tspan class="cls-17" x="151.2" y="0">l E</tspan><tspan class="cls-21" x="210.73" y="0">s</tspan><tspan class="cls-22" x="229.49" y="0">t</tspan><tspan class="cls-23" x="243.3" y="0">a</tspan><tspan class="cls-24" x="272.51" y="0">t</tspan><tspan class="cls-17" x="288.22" y="0">e </tspan><tspan class="cls-25" x="319.82" y="0">33 </tspan><tspan class="cls-26" x="387.42" y="0"> </tspan></text></svg>