<svg id="Capa_1" data-name="Capa 1" xmlns="http://www.w3.org/2000/svg" viewBox="0 0 402.15 266.8"><defs><style>.cls-1,.cls-10,.cls-11,.cls-12,.cls-3,.cls-4,.cls-5,.cls-6,.cls-7,.cls-8,.cls-9{fill:#040203;}.cls-10,.cls-11,.cls-12,.cls-13,.cls-14,.cls-15,.cls-16,.cls-17,.cls-18,.cls-19,.cls-2,.cls-20,.cls-21,.cls-22,.cls-3,.cls-4,.cls-5,.cls-6,.cls-7,.cls-8,.cls-9{isolation:isolate;}.cls-10,.cls-11,.cls-12,.cls-3,.cls-4,.cls-5,.cls-6,.cls-7,.cls-8,.cls-9{font-size:33.8px;}.cls-10,.cls-11,.cls-12,.cls-13,.cls-14,.cls-15,.cls-16,.cls-17,.cls-18,.cls-19,.cls-20,.cls-21,.cls-3,.cls-4,.cls-5,.cls-6,.cls-7,.cls-8,.cls-9{font-family:BrightSunshineDemo, Bright Sunshine Demo;}.cls-4{letter-spacing:-0.01em;}.cls-5{letter-spacing:-0.06em;}.cls-6{letter-spacing:-0.02em;}.cls-7{letter-spacing:0.03em;}.cls-8{letter-spacing:0.02em;}.cls-9{letter-spacing:-0.03em;}.cls-10{letter-spacing:-0.03em;}.cls-11{letter-spacing:0.01em;}.cls-12{letter-spacing:-0.02em;}.cls-13,.cls-14,.cls-15,.cls-16,.cls-17,.cls-18,.cls-19,.cls-20,.cls-21{font-size:61.12px;}.cls-13,.cls-14{fill:#00679f;}.cls-13{letter-spacing:-0.06em;}.cls-15,.cls-16,.cls-17,.cls-18,.cls-19,.cls-20,.cls-21,.cls-22{fill:#1f140f;}.cls-16{letter-spacing:-0.15em;}.cls-17{letter-spacing:0.01em;}.cls-18{letter-spacing:0.07em;}.cls-19{letter-spacing:0.04em;}.cls-20{letter-spacing:-0.04em;}.cls-21{letter-spacing:-0.01em;}.cls-22{font-size:39.74px;font-family:ShockwaveRegular, Shockwave;}</style></defs><rect class="cls-1" x="183.64" y="112.79" width="8.52" height="8.52"/><rect class="cls-1" x="194.83" y="112.79" width="8.52" height="8.52"/><rect class="cls-1" x="184.08" y="124.64" width="8.52" height="8.52"/><rect class="cls-1" x="195.27" y="124.64" width="8.52" height="8.52"/><rect class="cls-1" x="132.52" y="132.27" width="4.3" height="4.3"/><rect class="cls-1" x="138.17" y="132.27" width="4.3" height="4.3"/><rect class="cls-1" x="132.74" y="138.25" width="4.3" height="4.3"/><rect class="cls-1" x="138.4" y="138.25" width="4.3" height="4.3"/><polygon class="cls-1" points="245.56 99.78 193.63 85.27 192.86 84.48 162.98 115.75 138.47 114.78 113.21 140.5 116.34 143.46 138.72 120.8 153.23 132.2 192.89 90.69 244.98 144.13 290.06 144.13 290.06 140.48 290.06 140.48 245.56 99.78"/><polygon class="cls-1" points="166.77 3.84 194.51 14.15 166.69 0 126.54 19.46 126.44 28.3 166.87 8.71 166.77 3.84"/><polygon class="cls-1" points="166.79 20.54 194.51 29.77 166.8 16.47 126.55 34.23 126.44 43.92 166.92 26.85 166.79 20.54"/><polygon class="cls-1" points="167.12 33.7 126.98 50.39 126.87 60.08 167.39 44.72 167.22 38.42 194.94 45.93 167.12 33.7"/><polygon class="cls-1" points="167.12 51.03 126.98 65.14 126.93 69.45 126.86 69.45 126.86 123.04 136.09 112.12 158.34 112.12 165.73 105.17 131.7 111.16 131.67 105.92 168.3 99.39 167.97 90.51 180.28 91.58 182.74 89.8 167.12 85.71 131.61 94.41 131.58 88.72 167.39 80.47 167.22 75.03 193.79 78.2 167.12 69.45 131.52 78.9 131.49 73.48 167.39 62.91 167.22 55.76 194.08 61.41 167.12 51.03"/><polygon class="cls-1" points="195.98 81.7 201.63 82.56 201.63 33.7 195.98 34.56 195.98 81.7"/><polygon class="cls-1" points="204.03 83.62 208.31 84.48 208.31 31.92 204.03 32.78 204.03 83.62"/><polygon class="cls-1" points="211.74 86.17 215.85 87.04 215.85 29.16 211.74 30.03 211.74 86.17"/><polygon class="cls-1" points="218.93 88.07 223.21 88.93 223.21 27.41 218.93 29.14 218.93 88.07"/><polygon class="cls-1" points="226.81 90.94 230.92 91.81 230.92 24.67 226.81 26.4 226.81 90.94"/><polygon class="cls-1" points="233.49 25.53 233.49 92.47 245.13 95.92 245.13 38.45 233.49 25.53"/><path class="cls-1" d="M304.74,47.41a2.11,2.11,0,0,0-.35-1,1,1,0,0,0,0-1.36,1,1,0,0,0-.68-.44,2.22,2.22,0,0,0-.24-.6l-.07-.15c-2.35-5.28-6.65-7.81-12.41-7.33a1.16,1.16,0,0,0-.32.08.76.76,0,0,0-.18-.6,1,1,0,0,0-.82-.32,1,1,0,0,0-.94,1.05.88.88,0,0,0,0,.17,1.42,1.42,0,0,0,1.38,1.29l1.36.19,2.47.36a9.32,9.32,0,0,1,7.31,5.67v.09a1.75,1.75,0,0,0,.12.32l.09.15a2.46,2.46,0,0,0,.22.39,1,1,0,0,0-.22.24,1.71,1.71,0,0,0-.17,1.38.75.75,0,0,1-.16.15l-.14.13a21.69,21.69,0,0,1-7.76,5.11,2.49,2.49,0,0,0-.59.29,1.14,1.14,0,0,0-.33,1.54.85.85,0,0,0,.53.45.9.9,0,0,0,.76-.17h.07l1-.41-.93.54a2.15,2.15,0,0,0-1.13,2.78h0l-1-.32,1,1.41a1.63,1.63,0,0,1,.09,1.85,2.14,2.14,0,0,0,0,1.61V62c.2.7.44,1.4.66,2.08a2.46,2.46,0,0,0-2.82.86,10.15,10.15,0,0,0-2.3,6.53c-1.31-3.66-1.12-6.77.58-9.73l.84-1.46-.55.22a1.78,1.78,0,0,0,.44-1,.87.87,0,0,0-.24-.63l-.41-.66-.52.49h0l-.08-.11a1.35,1.35,0,0,0-.61-.57,2.12,2.12,0,0,0-2.15,0l-.86.59a4.5,4.5,0,0,0,.17-.6h0l.82-.52c.14-.09.29-.16.48-.26A3.12,3.12,0,0,0,288,55.35l.51-1.56-1.21.78a2.2,2.2,0,0,0-.67-1.66,1.39,1.39,0,0,0,.58-1,1.25,1.25,0,0,0-.19-.73,2.34,2.34,0,0,0,.4-.37l.22-.19c.25-.21.89-.74.54-1.42a.85.85,0,0,0,.32-.68.86.86,0,0,0-.25-.61,1,1,0,0,0-.77-.22,2.59,2.59,0,0,0-2.29.91l-.56.72a.87.87,0,0,0-.64.41.64.64,0,0,0,0,.63c.1.23.1.23-.27.5a2.61,2.61,0,0,0-.44.37,1.45,1.45,0,0,0-.5,1.31A1.09,1.09,0,0,0,283,53a.92.92,0,0,0-.29.3,1.75,1.75,0,0,0-.08,1.59c.09.27.09.27-.18.51a8.49,8.49,0,0,0-2,2.71,1.35,1.35,0,0,0,.33,1.88,1.13,1.13,0,0,0,.21.12l.68.38.18-.76a5.57,5.57,0,0,1,1.37-2.45l-.23.59c-.11.29-.22.59-.34.87a1,1,0,0,0,0,.59v.74l-1.08.77,1.42.22a4.86,4.86,0,0,0,.54,0,4,4,0,0,0,2.34-.88c.79-.56.79-.56,1.42.17a.44.44,0,0,1,.08.11,1.37,1.37,0,0,0,.59.5c-1.73.82-2,2.39-2.28,3.67-.73,3.9-.06,6.85,2.1,9.27a1.14,1.14,0,0,0,.74.32l.61.09.45.55.25-1.77c.44-3.2.86-6.22,3.83-8h.07a5.48,5.48,0,0,1-.87,4.36c-.45.69-.89,1.4-1.3,2.09l-.29.46a1.48,1.48,0,0,0,.26,2.08,1.64,1.64,0,0,0,.22.14,3.87,3.87,0,0,1,1.3,1.59l-.3-.18-1.88-1,1.11,1.82a19.2,19.2,0,0,1,2.41,5.67,67.66,67.66,0,0,0-8.42.32c.14-.39.27-.78.39-1.18a10.82,10.82,0,0,1,2.47-4.56l.86-.85-1.21-.14a1.63,1.63,0,0,0-1.77.7,8.83,8.83,0,0,0-2,6.3,45.92,45.92,0,0,0-16.3,4.88,87.81,87.81,0,0,0-18.22,12.91l-.15.14,18.29,16.76.08-.31c5.4-21.29,30.12-28.11,30.37-28.17h.14V82.59h-.17s-1-.13-2.74-.21a7.53,7.53,0,0,0-1.17-4.48L295,78l.14-.7a4.37,4.37,0,0,0-1.77-4.07,1,1,0,0,1-.21-.2.58.58,0,0,1,.11-.15,6,6,0,0,0,.36-.52,2.2,2.2,0,0,1,.21-.32c2.45-3,2.82-6.38,1.15-10.32a2.13,2.13,0,0,1-.17-1.76,1.48,1.48,0,0,0,0-1.2,2.11,2.11,0,0,0-1.25-.94l.1-.12a18.14,18.14,0,0,1,4.2-3.19,23.65,23.65,0,0,0,3.63-2.58,7.32,7.32,0,0,0,1.42-1.72,31.16,31.16,0,0,1-.07,3.35v.17a18.43,18.43,0,0,1-1.88,6.9,7.55,7.55,0,0,0-.78,2.45,1.11,1.11,0,0,0,.85,1.32h.07a1,1,0,0,0,.79-.22,1.21,1.21,0,0,0,.25-1,2.51,2.51,0,0,1,.35-1.28c.05-.11.11-.22.15-.33A25.8,25.8,0,0,0,304.74,47.41Zm-20.05,5h0a2,2,0,0,1,.15-.15.2.2,0,0,0,.09.09.65.65,0,0,1-.24,0Z"/><path class="cls-1" d="M291.17,52.72h0a2.85,2.85,0,0,1,.22-.7.81.81,0,0,0,0-.68.93.93,0,0,0-.59-.52.79.79,0,0,0-.67.06.89.89,0,0,0-.41.62,5.52,5.52,0,0,1-.11.65,4.42,4.42,0,0,1-.49,1.66l-1,1.74,1.81-.93A2.46,2.46,0,0,0,291.17,52.72Z"/><g class="cls-2"><text class="cls-3" transform="translate(100.92 177.6)">G</text><text class="cls-4" transform="translate(112.99 177.6)">r</text><text class="cls-3" transform="translate(124.24 177.6)">upo </text><text class="cls-5" transform="translate(166.12 177.6)">I</text><text class="cls-3" transform="translate(175.72 177.6)">n</text><text class="cls-6" transform="translate(189.24 177.6)">m</text><text class="cls-7" transform="translate(206.41 177.6)">o</text><text class="cls-8" transform="translate(217.39 177.6)">b</text><text class="cls-4" transform="translate(230.95 177.6)">i</text><text class="cls-9" transform="translate(238.86 177.6)">l</text><text class="cls-10" transform="translate(246.46 177.6)">i</text><text class="cls-11" transform="translate(253.83 177.6)">a</text><text class="cls-9" transform="translate(267.89 177.6)">r</text><text class="cls-12" transform="translate(278.27 177.6)">i</text><text class="cls-3" transform="translate(285.91 177.6)">o</text></g><g class="cls-2"><text class="cls-13" transform="translate(0 238.19)">W</text><text class="cls-14" transform="translate(37.46 238.19)">s</text><text class="cls-15" transform="translate(53.84 238.19)"> </text><text class="cls-16" transform="translate(68.57 238.19)">R</text><text class="cls-17" transform="translate(104.63 238.19)">e</text><text class="cls-18" transform="translate(121.99 238.19)">a</text><text class="cls-15" transform="translate(151.2 238.19)">l E</text><text class="cls-19" transform="translate(210.73 238.19)">s</text><text class="cls-20" transform="translate(229.49 238.19)">t</text><text class="cls-18" transform="translate(243.3 238.19)">a</text><text class="cls-21" transform="translate(272.51 238.19)">t</text><text class="cls-15" transform="translate(288.22 238.19)">e </text><text class="cls-22" transform="translate(319.82 238.19)">33</text></g></svg>